<?xml version="1.0" encoding="iso-8859-1"?>
<!-- Uploaded to: SVG Repo, www.svgrepo.com, Generator: SVG Repo Mixer Tools -->
<svg fill="#000000" height="800px" width="800px" version="1.1" id="Capa_1" xmlns="http://www.w3.org/2000/svg" xmlns:xlink="http://www.w3.org/1999/xlink" 
	 viewBox="0 0 489.1 489.1" xml:space="preserve">
<g>
	<path d="M489,258.1c0-20-6.3-38.4-17-53.6c0.2-1.2,0.3-2.4,0.3-3.7C472.3,90.5,370.3,0,245.5,0S18.8,90.6,17.7,200.9
		c0,0.8,0.1,1.7,0.2,2.5C6.7,218.8,0.1,237.6,0.1,258.1c0,2.6,1.7,10.1,2.1,11.4l51,203.9c2,9.4,10.3,15.7,19.7,15.7h345.4
		c9.4,0,17.7-6.2,19.8-15.6C438,473.5,489,258.4,489,258.1z M245.6,40.7c91,0,166.6,56,182.9,130.1c-10.6-4.1-22.1-6.3-34.2-6.3
		c-30.8,0-57.9,14.6-75.2,37c-17.4-22-44.4-36-74.6-36c-30.1,0-57.1,14-74.5,35.8c-17.3-22.5-44.7-36.9-75.3-36.9
		c-11.2,0-21.9,1.9-31.9,5.5C79.6,96.3,154.9,40.7,245.6,40.7z M203.5,448.5c0,0-13.9-189.1-14.1-190.4c0-28.1,23.9-52,54.1-52
		s54.1,23.9,54.1,53.1c0,2.4-15.9,189.3-15.9,189.3L203.5,448.5L203.5,448.5z M41.7,258.1c0-29.1,23.9-53.1,54.1-53.1
		s54.1,23.9,54.1,53.1c0,0.1,14,190.4,14,190.4H88.5C88.5,448.5,41.7,258.4,41.7,258.1z M402.7,448.5h-81.2
		c0,0,17.7-189.3,17.7-190.4c0-29.1,23.9-53.1,54.1-53.1s54.1,23.9,54.1,53.1C447.4,260.2,402.7,448.5,402.7,448.5z"/>
</g>
</svg>